<?xml version="1.0" encoding="UTF-8"?>
<svg id="Layer_1" data-name="Layer 1" xmlns="http://www.w3.org/2000/svg" viewBox="0 0 180.9 201.6">
  <path d="M0,77.1c0-11.1,7.5-18.9,18-18.9s17.4,7.8,17.7,18.9c0,10.5-6.9,18.6-18,18.6-10.5,0-17.7-8.1-17.7-18.6ZM0,183c0-11.1,7.5-18.9,18-18.9s17.4,7.8,17.7,18.9c0,10.5-6.9,18.6-18,18.6-10.5,0-17.7-8.1-17.7-18.6Z"/>
  <path d="M66.29,168c7.5,4.8,24.9,12.3,43.2,12.3,33.9,0,44.4-21.6,44.1-37.8-.3-27.3-24.9-39-50.4-39h-14.7v-19.8h14.7c19.2,0,43.5-9.9,43.5-33,0-15.6-9.9-29.4-34.2-29.4-15.6,0-30.6,6.9-39,12.9l-6.9-19.2C76.8,7.5,96.6,0,117.6,0c38.4,0,55.8,22.8,55.8,46.5,0,20.1-12,37.2-36,45.9v.6c24,4.8,43.5,22.8,43.5,50.1,0,31.2-24.3,58.5-71.1,58.5-21.9,0-41.1-6.9-50.7-13.2l7.2-20.4Z"/>
</svg>